<svg  viewBox="0 0 200 56" xmlns="http://www.w3.org/2000/svg">
<g id="Taskify">
<path d="M13.2722 44.2193V12.5249H0.796265V5.15929H34.7709V12.5249H22.295V44.2193H13.2722Z"/>
<path d="M54.604 44.2193V38.3603L54.047 37.0769V26.5865C54.047 24.7265 53.4715 23.2757 52.3204 22.2341C51.2065 21.1925 49.4799 20.6717 47.1407 20.6717C45.5441 20.6717 43.966 20.9321 42.4065 21.4529C40.8842 21.9365 39.5846 22.6061 38.5078 23.4617L35.3888 17.3795C37.0225 16.2263 38.9905 15.3335 41.2926 14.7011C43.5947 14.0687 45.9339 13.7525 48.3103 13.7525C52.8774 13.7525 56.4234 14.8313 58.9483 16.9889C61.4732 19.1465 62.7356 22.5131 62.7356 27.0887V44.2193H54.604ZM45.4698 44.6657C43.1306 44.6657 41.1255 44.2751 39.4546 43.4939C37.7837 42.6755 36.5027 41.5781 35.6116 40.2017C34.7204 38.8253 34.2749 37.2815 34.2749 35.5703C34.2749 33.7847 34.7019 32.2223 35.5559 30.8831C36.447 29.5439 37.8394 28.5023 39.7331 27.7583C41.6268 26.9771 44.096 26.5865 47.1407 26.5865H55.1052V31.6643H48.0875C46.0453 31.6643 44.6344 31.9991 43.8546 32.6687C43.112 33.3383 42.7407 34.1753 42.7407 35.1797C42.7407 36.2957 43.1677 37.1885 44.0217 37.8581C44.9128 38.4905 46.1196 38.8067 47.642 38.8067C49.0901 38.8067 50.3896 38.4719 51.5407 37.8023C52.6917 37.0955 53.5272 36.0725 54.047 34.7333L55.3837 38.7509C54.7525 40.6853 53.6014 42.1547 51.9306 43.1591C50.2597 44.1635 48.1061 44.6657 45.4698 44.6657Z" />
<path d="M79.4144 44.6657C76.8524 44.6657 74.3832 44.3681 72.0068 43.7729C69.6676 43.1405 67.8111 42.3593 66.4372 41.4293L69.3334 35.1797C70.7072 36.0353 72.3224 36.7421 74.179 37.3001C76.0727 37.8209 77.9292 38.0813 79.7486 38.0813C81.7537 38.0813 83.1646 37.8395 83.9815 37.3559C84.8355 36.8723 85.2625 36.2027 85.2625 35.3471C85.2625 34.6403 84.9283 34.1195 84.26 33.7847C83.6288 33.4127 82.7748 33.1337 81.698 32.9477C80.6212 32.7617 79.433 32.5757 78.1334 32.3897C76.871 32.2037 75.59 31.9619 74.2904 31.6643C72.9908 31.3295 71.8026 30.8459 70.7258 30.2135C69.649 29.5811 68.7765 28.7255 68.1081 27.6467C67.4769 26.5679 67.1613 25.1729 67.1613 23.4617C67.1613 21.5645 67.6997 19.8905 68.7765 18.4397C69.8904 16.9889 71.487 15.8543 73.5663 15.0359C75.6456 14.1803 78.1334 13.7525 81.0296 13.7525C83.0718 13.7525 85.1511 13.9757 87.2676 14.4221C89.384 14.8685 91.1478 15.5195 92.5587 16.3751L89.6625 22.5689C88.2144 21.7133 86.7477 21.1367 85.2625 20.8391C83.8144 20.5043 82.4035 20.3369 81.0296 20.3369C79.0988 20.3369 77.6878 20.5973 76.7967 21.1181C75.9056 21.6389 75.46 22.3085 75.46 23.1269C75.46 23.8709 75.7756 24.4289 76.4068 24.8009C77.0752 25.1729 77.9478 25.4705 79.0246 25.6937C80.1013 25.9169 81.271 26.1215 82.5334 26.3075C83.833 26.4563 85.1326 26.6981 86.4321 27.0329C87.7317 27.3677 88.9013 27.8513 89.941 28.4837C91.0178 29.0789 91.8904 29.9159 92.5587 30.9947C93.2271 32.0363 93.5612 33.4127 93.5612 35.1239C93.5612 36.9839 93.0043 38.6393 91.8904 40.0901C90.7764 41.5037 89.1613 42.6197 87.0448 43.4381C84.9655 44.2565 82.422 44.6657 79.4144 44.6657Z" />
<path d="M104.841 38.0813L105.064 27.4793L119.044 14.1989H129.403L115.98 27.8699L111.469 31.5527L104.841 38.0813ZM97.6562 44.2193V2.81569H106.345V44.2193H97.6562ZM119.99 44.2193L109.854 31.6085L115.312 24.8567L130.517 44.2193H119.99Z" />
<path d="M133.159 44.2193V14.1989H141.847V44.2193H133.159ZM137.503 10.0139C135.906 10.0139 134.607 9.54889 133.604 8.61889C132.602 7.68889 132.1 6.53569 132.1 5.15929C132.1 3.78289 132.602 2.62969 133.604 1.69969C134.607 0.769688 135.906 0.304688 137.503 0.304688C139.099 0.304688 140.399 0.751088 141.402 1.64389C142.404 2.49949 142.905 3.61549 142.905 4.99189C142.905 6.44269 142.404 7.65169 141.402 8.61889C140.436 9.54889 139.137 10.0139 137.503 10.0139Z" />
<path d="M149.703 44.2193V13.5293C149.703 10.1441 150.706 7.44709 152.711 5.43829C154.716 3.39229 157.575 2.36929 161.288 2.36929C162.551 2.36929 163.757 2.49949 164.908 2.75989C166.097 3.02029 167.099 3.42949 167.916 3.98749L165.632 10.2929C165.15 9.95809 164.611 9.69769 164.017 9.51169C163.423 9.32569 162.792 9.23269 162.124 9.23269C160.861 9.23269 159.877 9.60469 159.172 10.3487C158.503 11.0555 158.169 12.1343 158.169 13.5851V16.3751L158.392 20.1137V44.2193H149.703ZM145.081 21.5645V14.8685H165.855V21.5645H145.081Z" />
<path d="M173.249 55.4909C171.69 55.4909 170.149 55.2491 168.627 54.7655C167.104 54.2819 165.86 53.6123 164.895 52.7567L168.07 46.5629C168.738 47.1581 169.499 47.6231 170.353 47.9579C171.244 48.2927 172.117 48.4601 172.971 48.4601C174.196 48.4601 175.162 48.1625 175.867 47.5673C176.61 47.0093 177.278 46.0607 177.872 44.7215L179.432 41.0387L180.1 40.0901L190.849 14.1989H199.204L185.67 46.0607C184.704 48.4787 183.59 50.3759 182.328 51.7523C181.102 53.1287 179.729 54.0959 178.206 54.6539C176.721 55.2119 175.069 55.4909 173.249 55.4909ZM178.373 45.3911L165.006 14.1989H173.973L184.333 39.3089L178.373 45.3911Z" />
</g>
</svg>
