<svg width="22" height="22" viewBox="0 0 22 22" fill="none" xmlns="http://www.w3.org/2000/svg">
<path d="M8.75407 13.8875L16.5228 6.11875C16.7062 5.93542 16.9239 5.84375 17.1759 5.84375C17.428 5.84375 17.6457 5.93542 17.8291 6.11875C18.0124 6.30208 18.1041 6.51979 18.1041 6.77188C18.1041 7.02396 18.0124 7.24167 17.8291 7.425L9.39574 15.8583C9.21241 16.0417 8.99852 16.1333 8.75407 16.1333C8.50963 16.1333 8.29574 16.0417 8.11241 15.8583L4.17074 11.9167C3.9874 11.7333 3.89956 11.5156 3.9072 11.2635C3.91484 11.0115 4.01032 10.7938 4.19365 10.6104C4.37699 10.4271 4.5947 10.3354 4.84678 10.3354C5.09886 10.3354 5.31657 10.4271 5.4999 10.6104L8.75407 13.8875Z" fill="white"/>
</svg>
