<svg width="30" height="30" viewBox="0 0 30 30" fill="none" xmlns="http://www.w3.org/2000/svg">
<path d="M5.50484 25.6249C5.18474 25.6249 4.91642 25.5167 4.69987 25.3001C4.48331 25.0836 4.37503 24.8152 4.37503 24.4951V22.3293C4.37503 22.0245 4.43353 21.7339 4.55053 21.4577C4.66751 21.1814 4.82856 20.9407 5.03369 20.7356L20.863 4.91347C21.052 4.74178 21.2608 4.60911 21.4892 4.51547C21.7176 4.42182 21.9571 4.375 22.2077 4.375C22.4583 4.375 22.7011 4.41948 22.936 4.50844C23.171 4.59738 23.379 4.73879 23.5601 4.93269L25.0865 6.47834C25.2804 6.65943 25.4186 6.8678 25.5012 7.10347C25.5837 7.33912 25.625 7.57476 25.625 7.81041C25.625 8.06176 25.582 8.30164 25.4962 8.53003C25.4104 8.75845 25.2738 8.96717 25.0865 9.15619L9.26437 24.9663C9.05925 25.1714 8.81856 25.3325 8.54231 25.4494C8.26604 25.5664 7.97549 25.6249 7.67066 25.6249H5.50484ZM21.9399 9.61775L23.75 7.81966L22.1803 6.24997L20.3822 8.06006L21.9399 9.61775Z" fill="white"/>
</svg>
